<?xml version="1.0" encoding="utf-8"?>
<!-- Generator: Adobe Illustrator 23.1.1, SVG Export Plug-In . SVG Version: 6.00 Build 0)  -->
<svg version="1.1"
	 id="svg78" xmlns:cc="http://creativecommons.org/ns#" xmlns:dc="http://purl.org/dc/elements/1.1/" xmlns:rdf="http://www.w3.org/1999/02/22-rdf-syntax-ns#" xmlns:svg="http://www.w3.org/2000/svg"
	 xmlns="http://www.w3.org/2000/svg" xmlns:xlink="http://www.w3.org/1999/xlink" x="0px" y="0px" viewBox="0 0 43.1 72.8"
	 style="enable-background:new 0 0 43.1 72.8;" xml:space="preserve">
<style type="text/css">
	.st0{display:none;}
	.st1{display:inline;fill-rule:evenodd;clip-rule:evenodd;fill:#242B25;}
	.st2{fill-rule:evenodd;clip-rule:evenodd;fill:#DFE1E3;}
</style>
<g id="layer1" transform="translate(-234.31799,-337.13184)" class="st0">
	<path id="path16" class="st1" d="M66.3,432.7c1.2-1.1,5.8-2.9,6.3-3.2c0.5-0.3,0.6-3.8,6.1-4.9c5.5-1.1,8.6,2.2,9.2,2.7
		c0,0,2.4,1.3,6.4,2.2c4,1,10.9,3.7,16.4,15.3c3,6.4,3.1,14,2.6,19.7c0.1,1.3,0.1,2.4,0.3,3.1c0.7,3.1,3.5,3.9,1.9,4.4
		c-1.2,0.4-2.2-0.1-3.1-1.1c-0.2,1.2-0.3,2-0.3,2.3c0.1,1.3,1.4,7.6,1.7,8.7c0.3,1.1,2.9,1.9,2.5,2.4c-0.3,0.5-1.7,0.4-2.5,0
		c-0.1,1.2-0.9,4.5-2.2,5.1c-1.3,0.5-3.8,1.3-4.9,1.6c-1.1,0.3-1.3,1.3-1.7,1.3c-0.4,0,0.3-1.8,0.3-1.8s-1.9,0.8-2.5,1.1
		c-0.6,0.2,0.8-2.5,1.7-3c0.4-1,2.8-1.3,3.7-1.5c0.8-0.2,1-1.9,0.5-2.7c-1.6,0.1-5.2-0.7-6.4-1.2c-1.3-0.4-3.4-1.1-3.2-1.5
		c-0.4,1.1-1.9,1.7-1.9,1.7l-1.2,2.4c0,0,0,0.7-0.5,1.5c-0.5,0.7-3.6,1.6-4.4,1.6s-1.6,1-2.5,1.5c-0.9,0.5-0.4-0.4,0.1-1.4
		c-0.3-0.3-2.6,0.6-3.3,1c-0.6,0.3,0.3-1.9,1.3-2.9c0.7-1.5,3.4-1.7,3.9-1.7c0.5,0,0.7-0.4,1.1-0.7c0.3-0.3,0.6-1.5,0.7-2.3
		c0.1-0.8-0.6-2.7-1.2-4.3C81.8,456.3,80,440.3,80,439.4c0-0.8-0.7-2.6-2.3-4c-1.6-1.4-5-2-5-2s-3.5,0.5-4.8,0.7
		c-1.3,0.2-2.1,1.1-2.8,1C64.4,435,65.1,433.7,66.3,432.7L66.3,432.7z"/>
</g>
<g id="layer2" transform="translate(-234.31799,-337.13184)">
	<path id="path8" class="st2" d="M260.3,337.1c-2.7,0.1-7.3,1.6-7.6,7.3c-1.1,4.1-2.1,5.3-3,6.7c-0.9,1.4-9.4,16.3-9.2,30.8
		c0.2,14.5-1.2,20.5-5,23c-3.7,2.5,2.3,0.7,4.2,0c1.9-0.7,5.5-2.8,5.5-1.8c0,1.1-0.9,3,0.7,3.2c1.6,0.2,3.7,0,3.7,0s0.7,3,3,3
		c2.3,0,7.8,0.7,8.8,0.5c1.1-0.2,1.1-0.2,1.1-0.2l-0.5-1.4l1.4-0.4c0,0-2.1-0.5-3.2-0.7c0,0,0.4-0.4,0.1-0.4
		c-0.3-0.1-2.4-0.3-2.7-0.4c-0.4-0.1,0.8-0.6,1.1-0.8c0.2-0.2-0.4-0.5-0.8-0.6s1.1-0.5,0.6-0.6c-0.5-0.2-1.6-0.3-1.6-0.3
		s0.1-0.4-0.4-0.4c-0.5,0-1.1-0.3-1.1-0.3s0.5-1.2,1-1.7c0.5-0.4,4.4-5,5.2-6c0.9-1,6.5-10,7.5-20.7c1-10.7-1.2-19.8-2.5-22.9
		c-1.4-3.1-3.4-4.1-3.2-5.1c0.2-1,1.9-3,2.2-4c1.4-0.9,4.5-3,7.3-3.4s4.4,0.3,4.3-0.3c-0.1-0.6-1.8-0.8-3.2-0.9
		c-1.5-0.1-6.4,0.6-7.2,0.2C266.2,338.5,264.4,337,260.3,337.1L260.3,337.1z"/>
</g>
</svg>
