<?xml version="1.0" encoding="utf-8"?>
<!-- Generator: Adobe Illustrator 23.1.1, SVG Export Plug-In . SVG Version: 6.00 Build 0)  -->
<svg version="1.1"
	 id="svg78" xmlns:cc="http://creativecommons.org/ns#" xmlns:dc="http://purl.org/dc/elements/1.1/" xmlns:rdf="http://www.w3.org/1999/02/22-rdf-syntax-ns#" xmlns:svg="http://www.w3.org/2000/svg"
	 xmlns="http://www.w3.org/2000/svg" xmlns:xlink="http://www.w3.org/1999/xlink" x="0px" y="0px" viewBox="0 0 80.9 26.5"
	 style="enable-background:new 0 0 80.9 26.5;" xml:space="preserve">
<style type="text/css">
	.st0{fill-rule:evenodd;clip-rule:evenodd;fill:#00BB16;}
</style>
<g id="layer2" transform="translate(0,-815.35422)">
	<path id="path24" class="st0" d="M1.5,819.5c1.2-0.4,3.8-0.5,3.8-0.5c0.4-1,1.7-3.2,5.2-3.3c3.5-0.1,4.5,1.3,5.6,1.6
		c0,0,6.6,2.5,8.3,3c2.5,0.7,7.9-0.7,14.4-0.3c0.6,0,1.2,0.1,1.9,0.2c1.5-0.5,3-1.1,4.2-1.7c4.1-2.2,5.4-3.7,6.2-3
		c0.6,0.6,1.2,2.6-2.5,6c4.9,0.8,10,1.3,13.5-0.5c4.2-2.2,7.8-6.2,8.7-5.6c1,0.6-0.5,5.6-2.4,7.8c-1.9,2.2-0.2,2.2,0.3,2.4
		c0.5,0.2,0.8,2.6,4.3,0.2c0.9-0.6,3.1-1.3,3.1-1.3s1.3-0.3,1.9-0.3c0.6,0-0.3,1.1-0.3,1.1s0.6-0.1,1.5,0c0.9,0.1-0.3,0.9-0.3,0.9
		s1,0.2,1.9,0.3c0.9,0.2-0.8,1.1-1.4,1.5c-0.6,0.3-3.5,1.1-5.5,1.5c-2,0.3-7.9,1.6-7.9,1.6s0,0-0.7,1c-0.7,1-4.3,2.6-4.3,2.6
		s-5.4,7.5-23.4,7.2c-18-0.3-24-12.1-25.1-14.2c-1.1-2.1-2-2.4-3.7-3.1c-1.7-0.8-3.4-3.1-3.8-3.6c-0.3-0.4-2-0.6-3.1-0.5
		c-1.1,0.1-1.4,0.9-1.7,0.6C-0.2,820.8,0.2,820,1.5,819.5L1.5,819.5z"/>
</g>
</svg>
